<?xml version="1.0" encoding="utf8" standalone="no"?>
<svg viewBox="0 0 383.26257 499.32114" xmlns="http://www.w3.org/2000/svg">
<g transform="translate(-159.2378,-238.32325)">
<path d="m159.2378,737.6444c136.0891-12.90563 209.5542-83.11046 326.0223-305.61657 0,0-154.048,311.91199-309.2634,289.34615l-16.7589,16.27042z" fill="#54a800" fill-rule="evenodd"/>
<path d="m542.0828,238.33019c-38.324,103.09172-114.0396,178.40924-170.6828,234.39931-28.3216,27.99504-53.2422,54.89238-67.7187,87.625s-18.189,71.15755-4.7188,120.9375l10.7813,3.8125c0,0-1.5645-6.72648-1.8055-7.65433 13.9766,2.50455 67.8229,7.13692 120.993-38.47067 61.6244-52.85954 120.3297-164.987 112.9375-400.65625l.214.007zm-9.214,28.55556c1.9183,214.38586-53.6317,316.53289-110.0625,364.9375-54.2601,46.54254-107.2139,44.29661-115.5313,43.65625-11.9577-46.47222-8.3036-81.26318 5-111.34375 13.629-30.81624 37.5856-56.91 65.7188-84.71875 51.904-51.3056 117.7296-108.51016 154.875-212.53125z" fill="#54a800" fill-rule="evenodd"/>
</g>
</svg>
